<svg id="Layer_1" data-name="Layer 1" xmlns="http://www.w3.org/2000/svg" viewBox="0 0 3000 3000"><title>1</title><path d="M1328.56,1207.45c54.55-6.06,190.5,279.79,190.5,279.79s45.92-49.93,102.47-64.81,120.76-.67,120.76-.67,0-297.65,29.76-309.55c45.58-18.23,154.78,354.2,154.78,354.2s164.43-214.66,154.78-461.36c26.79-65.48,522.51-560.84,918.38-578.7-281.42,147.11-373.69,611.44-117.71,715.62-288.72-26.79-517.91,62.51-437.54,312.53-226.21-148.82-434.57-32.74-461.36,175.61,18.59,93.86,72.16,401.4-116.08,610.18-141.12,178.12-381.38,332.26-434.57,333.37,49.4-50.09,277.58-232.63,235.91-312-71.43-19.84-125.21-70.87-154.76-174.6-29-101.87-7.94-195.77-58.95-313.52-197-152.75-331.92-73.38-458.91,81.38,11.9-277.78-345.24-246-559.52-79.37,83.33-273.81-83.33-587.3-436.51-658.73,246-23.81,714.29,15.87,1039.68,186.51,123,196.67,297.62,305.56,351.39,314.87C1377.88,1511,1301.78,1210.42,1328.56,1207.45Z" fill="#231f20"/><path d="M1865.61,1520.88c-29.46-5.1-123.92,56.41-117.83,81.29C1764.4,1670,1877.74,1523,1865.61,1520.88Z" fill="#ffd176"/><path d="M1484.57,1613.8c-9.79,7.44,158.52,85.83,142,17.93C1620.55,1606.83,1508.37,1595.71,1484.57,1613.8Z" fill="#ffd176"/></svg>