<?xml version="1.0" encoding="UTF-8" standalone="no"?>
<!DOCTYPE svg PUBLIC "-//W3C//DTD SVG 1.1//EN" "http://www.w3.org/Graphics/SVG/1.1/DTD/svg11.dtd">
<svg width="100%" height="100%" viewBox="0 0 2500 2500" version="1.1" xmlns="http://www.w3.org/2000/svg" xmlns:xlink="http://www.w3.org/1999/xlink" xml:space="preserve" xmlns:serif="http://www.serif.com/" style="fill-rule:evenodd;clip-rule:evenodd;stroke-linecap:round;stroke-linejoin:round;stroke-miterlimit:1.5;">
    <g id="Ghost-White-wt-hands">
        <g id="Ghost-white-hands" transform="matrix(1.71932,0,0,1.71932,-797.621,-813.983)">
            <g id="Body2" transform="matrix(0.962936,0,0,0.962936,2835.87,157.161)">
                <g id="Body2-2" transform="matrix(0.942448,0.334354,-0.334354,0.942448,-2262.76,-124.191)">
                    <path d="M505.161,1591.41C586.276,1279.84 516.301,1041.63 514.607,809.347C513.495,656.807 530.318,459.328 677.428,370.913C1066.48,137.088 1315.83,755.287 1460.87,1012.39C1489.18,1062.57 1517.94,1133.39 1568.44,1166.84C1661.52,1228.48 1490.92,1337.81 1415.84,1349.95C1354.08,1359.93 1269.52,1311.32 1217.32,1352.38C1157.41,1399.52 1159.38,1433.95 1121.78,1500.79C1079.26,1576.39 977.612,1373.2 927.879,1472.67C903.325,1521.78 798.817,1717.93 744.87,1617.91C655.903,1452.96 556.093,1676.88 505.161,1591.41Z" style="fill:white;stroke:black;stroke-width:12.22px;"/>
                </g>
                <g id="Body2-1" transform="matrix(0.942448,0.334354,-0.334354,0.942448,-2262.76,-124.191)">
                    <path d="M505.161,1591.41C586.276,1279.84 516.301,1041.63 514.607,809.347C513.495,656.807 530.318,459.328 677.428,370.913C1066.48,137.088 1315.83,755.287 1460.87,1012.39C1489.18,1062.57 1517.94,1133.39 1568.44,1166.84C1661.52,1228.48 1490.92,1337.81 1415.84,1349.95C1354.08,1359.93 1269.52,1311.32 1217.32,1352.38C1157.41,1399.52 1159.38,1433.95 1121.78,1500.79C1079.26,1576.39 977.612,1373.2 927.879,1472.67C903.325,1521.78 798.817,1717.93 744.87,1617.91C655.903,1452.96 556.093,1676.88 505.161,1591.41Z" style="fill:white;stroke:black;stroke-width:12.22px;"/>
                </g>
            </g>
            <g id="Eyes2" transform="matrix(1,0,0,1,2870.22,201.54)">
                <g transform="matrix(0.999881,0.0154174,-0.0154174,0.999881,-2503.57,69.1)">
                    <ellipse cx="718.71" cy="625.627" rx="42.381" ry="64.382" style="stroke:black;stroke-width:12.22px;"/>
                </g>
                <g transform="matrix(0.999881,0.0154174,-0.0154174,0.999881,-2272.93,69.1)">
                    <ellipse cx="718.71" cy="625.627" rx="42.381" ry="64.382" style="stroke:black;stroke-width:12.22px;"/>
                </g>
            </g>
            <g transform="matrix(0.581626,0,0,0.581626,563.946,561.747)">
                <path d="M986.699,840.594C1046.42,899.611 1109.79,893.756 1169.34,843.319" style="fill:none;stroke:black;stroke-width:50px;"/>
            </g>
        </g>
        <g id="Hand" transform="matrix(1.7616,0,0,1.7616,4235.44,-478.193)">
            <g transform="matrix(0.848222,0,0,0.877888,-2689.67,163.946)">
                <path d="M762.63,1033.77C788.056,1011.11 815.192,988.342 843.477,969.108C915.15,920.369 1025.76,896.003 974.25,1034.71C946.392,1109.73 893.813,1172.32 825.929,1211.73" style="fill:none;stroke:black;stroke-width:12.22px;"/>
            </g>
            <g transform="matrix(-0.848222,0,0,0.877888,-699.779,163.946)">
                <path d="M762.63,1033.77C788.056,1011.11 815.192,988.342 843.477,969.108C915.15,920.369 1025.76,896.003 974.25,1034.71C946.392,1109.73 893.813,1172.32 825.929,1211.73" style="fill:none;stroke:black;stroke-width:12.22px;"/>
            </g>
        </g>
        <g id="Jack" transform="matrix(1.85774,0,0,1.85774,3239.11,-280.258)">
            <g transform="matrix(1.15905,0,0,1.09207,-3141.47,-128.152)">
                <ellipse cx="1774.42" cy="1195.94" rx="164.842" ry="154.275" style="fill:rgb(242,106,33);stroke:black;stroke-width:12.22px;"/>
            </g>
            <g transform="matrix(1,0,0,1,-2668.73,131.971)">
                <ellipse cx="1583.91" cy="920.593" rx="110.788" ry="43.142" style="stroke:black;stroke-width:12.22px;"/>
            </g>
            <g transform="matrix(1,0,0,1,-2749,0)">
                <path d="M1520.51,1061.45C1450.34,699.238 1956.36,789.681 1820.58,1073.66" style="fill:none;stroke:black;stroke-width:12.22px;"/>
            </g>
            <g transform="matrix(1,0,0,1,-2749,0)">
                <path d="M1551.47,1226.18C1563.57,1232.7 1575.82,1239.82 1588.55,1245.05C1592.17,1246.55 1605.75,1249.73 1607.76,1251.71C1608.62,1252.55 1607.74,1257.02 1607.71,1257.76C1607.46,1263.39 1605.8,1269.88 1606.28,1275.47C1606.61,1279.23 1615.55,1280.42 1617.83,1281.07C1625.77,1283.33 1647.27,1287.52 1655.78,1284.73C1662.34,1282.58 1659.95,1270.5 1660.04,1265.26C1660.1,1261.49 1659.55,1256.8 1660.32,1253.11C1661.84,1245.79 1678.93,1247.07 1684.58,1247.46C1689.63,1247.81 1692.36,1248.63 1694.26,1252.74C1698.09,1261 1699.95,1269.86 1702.65,1278.49C1703.59,1281.49 1711.23,1281.58 1713.61,1281.37C1721.67,1280.68 1728.66,1275.92 1735.62,1272.22C1738.97,1270.44 1742.67,1269.43 1743.75,1265.61C1747.04,1254.03 1733.98,1241.39 1743.52,1232.21C1745.93,1229.88 1748.59,1227.85 1751.25,1225.82C1763.33,1216.61 1777.93,1209.64 1791.73,1203.25C1791.77,1203.23 1792.5,1207.64 1792.53,1207.91C1794.58,1228.72 1781.76,1252.01 1770.87,1268.23C1758.84,1286.15 1739.41,1299.57 1719.02,1308.43C1685.76,1322.88 1639.01,1314.59 1606.61,1300.12C1595.38,1295.1 1583.61,1289.45 1575.26,1280.14C1562.48,1265.9 1555,1244.51 1551.47,1226.18Z" style="stroke:black;stroke-width:12.22px;"/>
            </g>
            <g transform="matrix(1,0,0,1,-2749,0)">
                <path d="M1583.89,1125.82L1607.28,1177.9L1560.5,1177.9L1583.89,1125.82Z" style="stroke:black;stroke-width:12.22px;"/>
            </g>
            <g transform="matrix(1,0,0,1,-2576.23,0)">
                <path d="M1583.89,1125.82L1607.28,1177.9L1560.5,1177.9L1583.89,1125.82Z" style="stroke:black;stroke-width:12.22px;"/>
            </g>
            <g transform="matrix(0.730304,0,0,0.66368,-2233.62,438.787)">
                <path d="M1583.89,1125.82L1607.28,1177.9L1560.5,1177.9L1583.89,1125.82Z" style="stroke:black;stroke-width:12.22px;"/>
            </g>
        </g>
    </g>
</svg>
