<svg xmlns="http://www.w3.org/2000/svg" viewBox="0 0 64 64"><g id="Line_Icons" data-name="Line Icons"><circle cx="29" cy="13" r="2"/><circle cx="35" cy="13" r="2"/><path d="M61.71,23.29a1,1,0,0,0-1.42,0L59,24.63l2-5.28a1,1,0,0,0-1.88-.7l-1.6,4.28L58,18.11a1,1,0,1,0-2-.22l-.72,6.47L54,19.73a1,1,0,0,0-1.92.54l1.58,5.55-2.3-.77a1,1,0,1,0-.64,1.9l2.66.88-4,1.33A3,3,0,0,0,47,28a2.92,2.92,0,0,0-.73.1l-2.44-3.65a1,1,0,0,0-1.38-.28l-1.9,1.26A3,3,0,0,0,38,24H33V21.82a3,3,0,0,0,1-.59A3,3,0,0,0,36,22a3,3,0,0,0,2.63-4.43,3.89,3.89,0,0,0,1.16-1.93A5.93,5.93,0,0,0,40,14a8,8,0,0,0-.12-1.31,19.3,19.3,0,0,0,5.49-2.95,3,3,0,0,0,1.16-2.37A3,3,0,0,0,41.69,5,12.06,12.06,0,0,1,39,6.62V4a2,2,0,0,0-2-2H35a2,2,0,0,0-2,2H31a2,2,0,0,0-2-2H26a2,2,0,0,0-2,2V6.11A11.69,11.69,0,0,1,22.31,5a3.08,3.08,0,0,0-3.73,0,3,3,0,0,0,0,4.7,19.27,19.27,0,0,0,5.5,3A8.06,8.06,0,0,0,24,14a4.61,4.61,0,0,0,1.36,3.58A3,3,0,0,0,28,22a3,3,0,0,0,2-.77,3,3,0,0,0,1,.59V24H26a3,3,0,0,0-2.55,1.43l-1.9-1.26a1,1,0,0,0-1.08,0l-5.61,3.51A3,3,0,0,0,13,27a2.63,2.63,0,0,0-.49.05L9.13,21a1,1,0,0,0,.37-.13A1,1,0,0,0,10,21a1.25,1.25,0,0,0,.32-.05l3-1a1,1,0,1,0-.64-1.9l-2.3.77L12,13.27A1,1,0,1,0,10,12.73L8.71,17.36,8,10.89a1,1,0,1,0-2,.22l.53,4.82-1.6-4.28a1,1,0,0,0-1.88.7l2,5.28L3.71,16.29a1,1,0,0,0-1.42,1.42l4,4A1,1,0,0,0,7,22a.94.94,0,0,0,.37-.07L10.76,28A2.93,2.93,0,0,0,10,30a3,3,0,0,0,6,0,2.82,2.82,0,0,0-.08-.65L21,26.19l2.08,1.38a3,3,0,0,0,1.34,2A2.94,2.94,0,0,0,24,31a3,3,0,0,0,2.22,2.88A3,3,0,0,0,29,38h2v2H30a3,3,0,0,0-2.82,2H24a1,1,0,0,0-.81.42l-3.37,4.71A2.76,2.76,0,0,0,19,47a3,3,0,0,0,0,6,2.93,2.93,0,0,0,1-.18l1.84,2.31L20.4,56.2a1,1,0,0,0-.4.73,1,1,0,0,0,.29.78L22,59.41V62a1,1,0,0,0,.57.9A.94.94,0,0,0,23,63a1,1,0,0,0,.62-.22l5-4a1,1,0,0,0,.18-1.38l-3-4a1,1,0,0,0-1.4-.2l-1,.73-1.89-2.35a3,3,0,0,0-.09-3.3L24.51,44h2.67A3,3,0,0,0,30,46h4a3,3,0,0,0,2.92-2.34l3-1.5,4.22,3A2.76,2.76,0,0,0,44,46a3,3,0,0,0,2.71,3l1.2,4.77L46.76,54A1,1,0,0,0,46,55.16l1,6a1,1,0,0,0,.46.69A1,1,0,0,0,48,62a.84.84,0,0,0,.27,0l7-2a1,1,0,0,0,0-1.91l-2.48-.83L52,53.76A1,1,0,0,0,50.76,53l-.92.23L48.65,48.5A3,3,0,0,0,47,43a2.94,2.94,0,0,0-1.72.55l-4.7-3.36a1,1,0,0,0-1-.08l-2.93,1.46A3,3,0,0,0,34,40H33V38h2a3,3,0,0,0,2.78-4.12A3,3,0,0,0,40,31a2.94,2.94,0,0,0-.4-1.47,3,3,0,0,0,1.34-2l1.78-1.18,1.89,2.82A3,3,0,0,0,44,31a3,3,0,0,0,6,.06L56.32,29a.67.67,0,0,0,.18-.11A.93.93,0,0,0,57,29a1,1,0,0,0,.71-.29l4-4A1,1,0,0,0,61.71,23.29ZM42.94,6.57a1,1,0,0,1,1.23,0,1,1,0,0,1,.36.77,1,1,0,0,1-.39.79,17.24,17.24,0,0,1-4.82,2.63,2.8,2.8,0,0,0-.15-.3c-.07-.15-.14-.29-.22-.43a5,5,0,0,0-.31-.49c-.08-.13-.17-.26-.26-.39a1.7,1.7,0,0,1-.1-.14h0A14.57,14.57,0,0,0,42.94,6.57ZM29,4a2,2,0,0,0,2,2h2a2,2,0,0,0,2-2h2V7.34l-.33.09-.33.08-.2,0a19.15,19.15,0,0,1-1.94.32h-.14c-.65.07-1.32.1-2,.11H32a18.81,18.81,0,0,1-2-.11h-.15a17.23,17.23,0,0,1-2-.32h0l-.12,0-.54-.13a7.1,7.1,0,0,1-.76-.23L26.05,7,26,7V4ZM19.47,7.38a1,1,0,0,1,.37-.78,1,1,0,0,1,.63-.23,1,1,0,0,1,.59.2,14,14,0,0,0,3.55,2c.22.09.44.18.63.24l.49.17c-.08.1-.14.2-.21.3a3.64,3.64,0,0,0-.24.35,5.7,5.7,0,0,0-.39.68l-.16.31-.06.11a16.7,16.7,0,0,1-4.81-2.62A1,1,0,0,1,19.47,7.38ZM29.75,17a1,1,0,0,0-.9,1.52A1,1,0,0,1,29,19a1,1,0,0,1-2,0,1,1,0,0,1,.44-.83,1,1,0,0,0-.17-1.72C26.64,16.16,26,15.65,26,14a6.05,6.05,0,0,1,.24-1.69,5.77,5.77,0,0,1,.31-.82c0-.08.09-.16.13-.25a5,5,0,0,1,.29-.5c.06-.1.13-.18.19-.27s.21-.28.33-.41a3.07,3.07,0,0,1,.25-.26l.2-.19.12,0,.61.1c.29.06.6.09.89.12l.36,0h0l.35,0c.2,0,.4,0,.59.05.37,0,.75,0,1.13,0l1,0,.5,0,.34,0,.33,0h.25c.31,0,.62-.07.85-.11a3.73,3.73,0,0,0,.44-.08l.21,0,.11,0,.16.15.19.21a3.57,3.57,0,0,1,.31.37,1.84,1.84,0,0,1,.17.22,4.92,4.92,0,0,1,.28.45,1.28,1.28,0,0,1,.11.2,4.28,4.28,0,0,1,.31.69,2.79,2.79,0,0,1,.12.34.29.29,0,0,1,0,.09A5.49,5.49,0,0,1,38,14a4.13,4.13,0,0,1-.13,1.11,1.93,1.93,0,0,1-1.14,1.34,1,1,0,0,0-.17,1.72A1,1,0,0,1,37,19a1,1,0,0,1-2,0,1,1,0,0,1,.15-.53,1,1,0,0,0,0-1,1,1,0,0,0-.88-.49h-.06l-.52,0a1,1,0,0,0-.81,1.52A1,1,0,0,1,33,19a1,1,0,0,1-2,0,1,1,0,0,1,.14-.5A1,1,0,0,0,30.33,17ZM13.44,30.89l-.1,0Zm-1.23-.31a.54.54,0,0,0,.14.16A.54.54,0,0,1,12.21,30.58Zm.29.26.18.1ZM24.8,55.4l1.82,2.42L24,59.92V59a1,1,0,0,0-.29-.71l-1.19-1.18ZM18,49.94S18,50,18,50h0S18,50,18,49.94Zm.12-.4a.67.67,0,0,0-.06.12Zm0,.92-.06-.09ZM51,58.24a1,1,0,0,0,.59.69l-2.82.8-.66-4,2.13-.54ZM47.76,45.36l-.12-.11Zm.18.32a1,1,0,0,0-.07-.15A1,1,0,0,1,47.94,45.68ZM35,43a1,1,0,0,1-1,1H30a1,1,0,0,1,0-2h4A1,1,0,0,1,35,43ZM26,26H38a1,1,0,0,1,0,2H26a1,1,0,0,1,0-2Zm9,10H29a1,1,0,0,1,0-2h6a1,1,0,0,1,0,2Zm2-4H27a1,1,0,0,1,0-2H37a1,1,0,0,1,0,2Zm9.27-.33,0,0Zm.32.23.06,0Z"/></g></svg>