<?xml version="1.0" encoding="utf-8"?>
<!-- Generator: Adobe Illustrator 27.0.1, SVG Export Plug-In . SVG Version: 6.00 Build 0)  -->
<svg version="1.1" id="Layer_1" xmlns="http://www.w3.org/2000/svg" xmlns:xlink="http://www.w3.org/1999/xlink" x="0px" y="0px"
	 viewBox="0 0 3555 1610" style="enable-background:new 0 0 3555 1610;" xml:space="preserve">
<style type="text/css">
	.st0{fill:none;}
</style>
<g>
	<path class="st0" d="M1723.8,755.5c12.1,0,23.5,2,34.9,6.2c5.8-56.4,11.1-116.6,11.3-181.6c-20,1.3-35.7-1.7-51-4.5
		c-11.6-2.2-22.6-4.3-35.4-4.5c1.2,14.7,2.6,29.3,4,43.5c4.4,45.4,8.9,92.3,8,144.2C1705.6,756.6,1714.9,755.5,1723.8,755.5z"/>
	<path class="st0" d="M1731.7,960.1c7.2-32,14.6-65.2,17.2-92.9c2.7-28.7-0.5-47-9.3-54.2c-7.5-6.2-20.9-5.4-39.8,2.4
		c4.7,66.2,13.8,128.4,23.2,185.6C1725.4,988,1728.5,974.2,1731.7,960.1z"/>
	<path class="st0" d="M3092.1,811.7c63.8-5,124.1-9.7,186.6-5.1c37.5,2.7,71.6,12,104.5,21c37.9,10.3,73.8,20,107.2,16.8
		c1.7-9.2-5.4-14.1-20.7-22.4c-5.3-2.9-10.9-5.8-15.3-9.4c-7.5-6.1-13.9-12.8-20-19.2c-7.9-8.4-15.5-16.4-24.2-21.2
		c-35.7-19.7-113.9-26.8-214.4-19.5c-86.3,6.3-178,22.6-228.2,40.6c-7.1,2.6-13.7,7-20.6,11.6c-13.9,9.3-29.6,19.8-50.4,13.2
		c-3.4-1.1-5.7-4.2-5.6-7.8c0.7-35.4-7.5-61.5-16.3-89c-4.5-14.3-9.2-29.1-12.5-45.2c-0.7-3.3,0.8-6.6,3.6-8.4
		c113.5-70.7,274.8-95.4,430.7-119.2c26.7-4.1,54.1-8.3,81.1-12.7c-143-43.2-319.2-6.7-524.3,108.6c-3.6,2-8.2,1-10.5-2.5
		c-12.6-18.6-24.9-37.3-37.9-57c-58-87.9-118-178.9-195.8-250.7c-0.1-0.1-0.2-0.1-0.2-0.2l-0.1-0.1c-99-91.3-244-164.5-419.4-211.6
		C2016.1,75.7,1822.6,57,1630,68.2c-125.4,7.3-243.8,26.9-352.1,58.5C1170.5,158,1072.4,201.1,986.3,255
		c-86.2,53.9-161,118.9-222.4,193.2c-62.1,75.2-110.8,160.5-144.8,253.5c-1.1,3.1-4.1,5.2-7.4,5.3c-103.3,1.4-212.1,4.1-306.6,19.8
		c-101.2,16.7-175,46.6-225.7,91.4c-1.3,15.2-6.5,26.4-11.6,37.1c49.3-3.8,94.4-24.2,141.9-45.8c42.7-19.4,86.8-39.4,136.6-48.3
		c74.5-13.3,169.8-9.2,253.3-4.2c2.2,0.1,4.2,1.2,5.7,2.8s2.1,3.9,1.8,6.1c-3.4,28.9-3.3,62-3.2,94c0.1,21.2,0.1,41.2-0.9,58
		c-0.2,2.6-1.6,5-3.9,6.4c-13.6,8.1-25.2,5.4-35.4,3c-5.8-1.4-11.4-2.7-17.3-2c-32.6,3.7-67,21.3-103.4,39.9
		c-11.2,5.7-22.7,11.6-34.2,17.1c-45.5,21.7-82.9,45.1-114.5,71.5c-31.5,26.3-59,57.3-84.2,94.8c-3.9,5.7-8,11.5-12,17.2
		c-19,26.8-38.6,54.5-40.2,82.5c0,0,0,0,0,0c16.3,0,26.5-14.2,38.6-33.8c3-4.8,5.8-9.3,8.7-13.3c55.3-74.5,105.4-124.4,162.2-161.8
		c71.6-47,152.6-72,247.8-76.4c3.3-0.2,6.3,1.7,7.7,4.7c6,13.2,11.6,27,17,40.3c9.7,24,19.8,48.7,32.1,70.3c1.1,2,1.4,4.3,0.7,6.4
		c-0.7,2.1-2.3,3.9-4.3,4.8c-37.7,17-80.7,42.9-121.1,73c-42,31.3-79,65.2-106.8,98c-4.4,5.1-7.7,11.9-11.3,19.1
		c-3.9,7.8-7.9,16-13.6,22.3c-6.8,7.5-13.9,11.7-20.2,15.3c-5.1,2.9-9.4,5.4-12.5,9.2c-7.8,9.5-16.1,22.4-24.9,36.1
		c-8.9,13.9-18.1,28.3-28.5,41.9c-26.1,34.3-49.6,70.3-45.4,101c1.7,12,7.5,22.4,17.8,31.7c19.5-21.5,32.3-47.7,44.8-73.1
		c7.2-14.7,14.6-29.9,23.2-43.8c40-65,86-119.4,140.6-166.3c54.4-46.8,116.1-85.1,188.6-117c1-0.5,2.1-0.7,3.2-0.7
		c1.8,0,3.6,0.6,5.1,1.8c20.9,17.2,35.4,37.6,49.5,57.3c9.1,12.8,18.6,26.1,29.7,38.3c93.4,102.6,215.6,176.4,373.6,225.6
		c138.2,43,301.9,67.4,515.1,76.8c297.8,13.1,540.4-23.4,763.2-114.8c237.8-97.5,388.8-230.4,448.8-395.1c0.8-2.1,2.3-3.8,4.4-4.6
		c2-0.9,4.3-0.9,6.4,0c121.5,53.7,214.9,112.6,302.9,190.9c11.1,9.8,22,21,32.6,31.7c33.7,34.1,68.4,69.4,116.1,76.5
		c-11.4-33.8-43.3-60.5-71.8-84.3c-3.1-2.6-6.2-5.2-9.2-7.7c-90.3-76-200.9-133.5-307.8-189.1c-23-12-46.9-24.4-69.8-36.6
		c-3.6-1.9-5.2-6.3-3.7-10c7.2-17.9,8.6-42.9,10.1-67.1c1.1-18.9,2.2-38.4,6.1-55.3c0.3-1.4,1-2.8,2.1-3.8
		c28.7-29.5,77.6-47,145.3-51.9C3064.8,813.8,3078.7,812.7,3092.1,811.7z M1426.7,660.8c-0.7,1.6-1.9,3-3.5,3.9c-1.2,0.7-2.6,1-4,1
		c-1.4,0-2.8-0.4-4.1-1.1c-34.1-20.8-49.8-70.9-64.9-119.4c-10.5-33.6-21.3-68.3-37.8-91.5c-17.5-24.7-39.3-33.3-68.7-27.1
		c-30.8,6.4-65.3,51.6-97.3,127.2c-4.5,10.6-7.2,23.2-9.8,35.5c-5.6,26.2-11.3,53.3-34.7,67.2c-3.5,2.1-7.9,1.2-10.4-2
		c-30.2-38.8-3.3-98.4,14.5-137.8l1-2.3c16.2-36,38.3-85.3,63.5-109.7c42.1-40.5,119.5-55.2,167.5-12.6c23.8,21.2,37.1,60.4,50,98.4
		c3.4,10,6.6,19.4,9.9,28.4c3.8,10.3,8.8,20.8,13.6,31.1C1428,585,1445,621.2,1426.7,660.8z M1895.4,551.5
		c-12.6,20.3-40.6,37.5-76.2,33.4c2.4,95.5-12.5,188.2-27,277.9c-5.4,33.8-10.6,65.8-14.6,97c-1.7,13.2-2.8,26.8-3.8,39.9
		c-3.3,43.3-6.8,88.1-35.2,120.9c-1.5,1.8-3.8,2.8-6,2.8c-0.7,0-1.4-0.1-2.2-0.3c-21.7-6.1-36.4-21-44.8-45.8
		c-7-20.5-8.8-45.3-10.6-69.3c-1-14.1-2-27.4-4-39.8c-15.8-101.1-21.1-224.1-26.2-342.9c-0.8-19.6-1.7-39.9-2.6-59.4
		c-3.5-4.1-9.3-6.1-15.9-8.4c-10.9-3.8-24.5-8.5-29.2-25.2c-5.6-19.2,0.9-37.9,9.7-45.7c5.1-4.5,11.1-5.8,16.6-3.5
		c7.7,3.3,12.2,12.8,13.7,28.4c38.8,9.2,85.7,11.6,131.2,13.9c24.9,1.3,50.6,2.5,74.9,5c4.9-1.7,7-6.6,10.2-16.7
		c3.8-11.8,9.4-29.6,32.1-28.4c2.3,0.1,4.4,1.2,5.8,3C1906.6,507.1,1908.2,530.9,1895.4,551.5z M2395.5,598.2
		c-1,3.5-4.2,5.7-7.7,5.7c-0.7,0-1.4-0.1-2-0.3c-41.9-11-58.6-58.4-74.9-104.2c-7.4-20.9-15-42.4-24.9-60.4
		c-14-25.4-49-63.8-72.1-66c-31-2.9-60.7,22.5-80.2,44.4c-30.7,34.5-50.6,75.3-56,86.9c-4.4,9.5-7.6,20.8-10.8,31.7
		c-7.9,27.2-16,55.4-42.8,67.1c-3.2,1.4-6.8,0.6-9.1-2c-26.4-29.4-3.5-79.1,11.6-112c1.3-2.8,2.5-5.4,3.6-7.9
		c22.1-49.3,45.1-84.3,72.3-110.1c36.6-34.7,81.3-51.9,132.9-51.2c1.1,0,2.1,0.2,3.1,0.7c33,14.6,58.6,36.9,80.5,70.2
		c19.4,29.6,34.3,65.6,50.1,103.7l1.4,3.5c2.3,5.7,5.1,11.5,7.9,17.7C2390.3,541.3,2403.8,570.3,2395.5,598.2z"/>
	<path d="M3553.9,830c-4.3-36.2-42.5-66.9-73.8-86.2c-35.9-22.2-81.1-40.8-118.1-48.5c-123.8-25.7-249.6,4.5-350.7,28.8
		c-22.9,5.5-44.6,10.7-64.3,14.8c-1.3-7.8-3.5-14.5-5.8-21c-2-5.9-3.9-11.5-5-17.8c6.9-2.6,13.8-5.2,20.6-7.9
		c70.3-26.8,142.9-54.6,235.6-67.8c12.5-1.8,31.8-3.2,54.1-4.9c95.5-7.1,226.4-16.8,228.8-72.8c1-25.6-35-59.1-53.7-69.2
		c-44.1-23.7-113.5-32.4-206.3-25.6c-61.3,4.5-129,19.5-195.9,43.4c-53.1,19-105.1,43.4-147.4,69.1
		c-105.1-156.4-235.8-329.9-452.3-429.1c-96.2-44.1-222.6-81.6-355.7-105.6c-142.2-25.6-284.1-35-410.5-27
		c-205.9,13-388.7,52.5-543.3,117.5c-158.3,66.6-286.7,159.8-381.6,277c-42.2,52.2-76.9,108.9-113.6,169c-18.3,30-37.3,61-57.2,91.2
		c-83.7-11.7-180.6-7.9-273.5,10.6c-92.1,18.4-170.9,49.1-221.8,86.4c-9.2,6.8-55.6,42.2-60.9,75.3c-5.4,33.3,1.2,58.1,19.6,73.5
		c13.5,11.4,32.6,17,56.7,16.8c19-0.2,41.1-4.2,62-11.4c27.7-9.5,56.3-22.1,86.6-35.4c92.7-40.9,197.6-87.2,315-56.7v57.6
		c-144.1,33.4-267.5,99.5-348.2,186.4c-33.1,35.6-89.1,109.4-92.8,202.9c-0.1,1.5,0.3,3.1,1.1,4.4c15.2,25.7,33.4,39.7,54.2,41.4
		c1.5,0.1,3,0.2,4.5,0.2c43.5,0,87-51.6,122.2-93.3c10.7-12.7,20.8-24.7,29.3-33.2l1.4-1.4c40.2-40.3,78.2-78.3,121-105.4
		c45.4-28.8,91.9-42.6,145.9-43.3c2.5,9.5,5.4,18.9,10.4,26.7c-55.4,31.3-108.4,73.4-161.6,128.6c-49.8,51.6-95.5,109.9-139.7,166.3
		l-5.9,7.5c-44.4,56.7-69,93-59.4,178.9c0.2,1.6,0.8,3,1.8,4.2c4.3,5.1,8.4,11.2,12.8,17.7c14.3,21.1,31.9,47.1,63.5,47.1
		c1.5,0,3.1-0.1,4.7-0.2c46.9-3.8,79.7-72.2,106-127.1c9-18.8,16.8-35,23.7-45.5c1.4-2.1,2.7-4.2,4.1-6.3
		c19.3-29.7,37.6-57.7,68.4-82.6c10.5-8.5,21.7-13.9,32.6-19.2c8.1-4,16.5-8,24.5-13.3c22.8-15,40.9-33.3,58.5-51
		c21-21.1,40.9-41.1,66.4-53.1c51.3,68.2,113.2,128.7,183.9,179.9c74.6,54,159.7,98.1,252.9,131c89,31.4,194.2,52.7,321.6,65
		c125.6,12.2,254.5,13.7,352.8,13.7c254.4,0,492.4-45.4,688.3-131.3c100-43.8,187.8-97.7,261-160.1c74-63.1,133-134.8,175.3-213.3
		c81.6,34.3,154.3,99.2,224.8,161.9c26,23.2,52.9,47.2,79.7,69c24.9,20.4,106.9,73.7,154.8,52.1c19.6-8.8,30.1-28.3,31.3-58
		c1.7-40.2-45.3-80.1-76.3-106.5c-5-4.2-9.3-7.9-12.8-11.1c-56.5-50.8-114.6-94.3-177.7-133.1c-60.2-36.9-123.4-68.5-193-96.5
		c2.2-10,2.5-21.5,2.7-32.7c0.3-14,0.6-28.4,4.8-37.3c36.5-2.8,74.5-9.7,114.6-17c80.3-14.6,163.3-29.7,250.2-15.8
		c13.4,2.1,32.9,8.7,53.6,15.7c35,11.8,75.6,25.6,108.7,25.6c16.6,0,31.4-3.5,42.4-12.5C3551.5,887.3,3557.8,863.6,3553.9,830z
		 M2903.5,870.5c-3.8,16.9-5,36.4-6.1,55.3c-1.4,24.2-2.9,49.2-10.1,67.1c-1.5,3.8,0.1,8.1,3.7,10c23,12.3,46.8,24.6,69.8,36.6
		c107,55.6,217.6,113.1,307.8,189.1c3,2.5,6.1,5.1,9.2,7.7c28.5,23.8,60.4,50.4,71.8,84.3c-47.7-7.1-82.5-42.3-116.1-76.5
		c-10.6-10.8-21.6-21.9-32.6-31.7c-88-78.4-181.4-137.3-302.9-190.9c-2-0.9-4.3-0.9-6.4,0c-2,0.9-3.6,2.5-4.4,4.6
		c-60,164.7-211,297.7-448.8,395.1c-222.9,91.4-465.4,127.9-763.2,114.8c-213.2-9.4-376.9-33.8-515.1-76.8
		c-158-49.2-280.2-123-373.6-225.6c-11.1-12.2-20.5-25.5-29.7-38.3c-14-19.7-28.6-40.1-49.5-57.3c-1.5-1.2-3.3-1.8-5.1-1.8
		c-1.1,0-2.2,0.2-3.2,0.7c-72.4,31.9-134.1,70.2-188.6,117c-54.6,47-100.6,101.4-140.6,166.3c-8.6,14-16,29.1-23.2,43.8
		c-12.5,25.4-25.3,51.6-44.8,73.1c-10.3-9.3-16.1-19.7-17.8-31.7c-4.2-30.6,19.3-66.7,45.4-101c10.4-13.6,19.6-28,28.5-41.9
		c8.8-13.7,17.1-26.7,24.9-36.1c3.1-3.8,7.5-6.3,12.5-9.2c6.3-3.6,13.5-7.8,20.2-15.3c5.7-6.3,9.7-14.4,13.6-22.3
		c3.6-7.2,6.9-14,11.3-19.1c27.9-32.8,64.8-66.7,106.8-98c40.4-30.1,83.4-56,121.1-73c2.1-0.9,3.6-2.7,4.3-4.8
		c0.7-2.1,0.5-4.5-0.7-6.4c-12.3-21.6-22.4-46.3-32.1-70.3c-5.4-13.3-11-27.1-17-40.3c-1.4-3-4.4-4.9-7.7-4.7
		c-95.1,4.4-176.2,29.4-247.8,76.4c-56.9,37.4-106.9,87.2-162.2,161.8c-2.9,4-5.7,8.5-8.7,13.3c-12.1,19.6-22.3,33.8-38.6,33.8
		c0,0,0,0,0,0c1.7-28,21.2-55.7,40.2-82.5c4-5.6,8.1-11.5,12-17.2c25.2-37.4,52.8-68.4,84.2-94.8c31.5-26.4,69-49.8,114.5-71.5
		c11.5-5.5,23-11.4,34.2-17.1c36.4-18.6,70.8-36.2,103.4-39.9c6-0.7,11.5,0.6,17.3,2c10.2,2.4,21.7,5.1,35.4-3
		c2.3-1.4,3.7-3.7,3.9-6.4c1-16.8,1-36.8,0.9-58c-0.1-32-0.2-65.1,3.2-94c0.3-2.2-0.4-4.4-1.8-6.1s-3.5-2.7-5.7-2.8
		c-83.5-4.9-178.7-9.1-253.3,4.2c-49.9,8.9-94,28.9-136.6,48.3c-47.5,21.6-92.6,42-141.9,45.8c5.1-10.7,10.2-21.9,11.6-37.1
		c50.7-44.8,124.5-74.7,225.7-91.4c94.4-15.6,203.2-18.3,306.6-19.8c3.3,0,6.3-2.1,7.4-5.3c34-93,82.7-178.3,144.8-253.5
		C825.2,373.9,900,308.9,986.3,255c86.1-53.9,184.2-97,291.5-128.3c108.3-31.6,226.8-51.3,352.1-58.5
		c192.7-11.1,386.1,7.6,559.5,54.1c175.4,47.1,320.4,120.3,419.4,211.6l0.1,0.1c0.1,0.1,0.2,0.1,0.2,0.2
		c77.8,71.8,137.8,162.7,195.8,250.7c13,19.8,25.3,38.4,37.9,57c2.3,3.4,6.9,4.5,10.5,2.5c205.1-115.3,381.3-151.8,524.3-108.6
		c-27.1,4.4-54.4,8.6-81.1,12.7c-156,23.9-317.3,48.5-430.7,119.2c-2.8,1.8-4.3,5.1-3.6,8.4c3.3,16.1,8,30.9,12.5,45.2
		c8.7,27.5,16.9,53.6,16.3,89c-0.1,3.5,2.2,6.7,5.6,7.8c20.8,6.6,36.5-3.9,50.4-13.2c6.9-4.6,13.5-9,20.6-11.6
		c50.2-18,141.9-34.3,228.2-40.6c100.6-7.3,178.7-0.2,214.4,19.5c8.7,4.8,16.2,12.8,24.2,21.2c6.1,6.5,12.4,13.2,20,19.2
		c4.4,3.5,9.9,6.5,15.3,9.4c15.4,8.2,22.4,13.1,20.7,22.4c-33.4,3.2-69.3-6.5-107.2-16.8c-33-9-67.1-18.2-104.5-21
		c-62.5-4.6-122.8,0.1-186.6,5.1c-13.4,1-27.2,2.1-41.2,3.1c-67.7,4.9-116.6,22.4-145.3,51.9
		C2904.5,867.7,2903.8,869.1,2903.5,870.5z"/>
	<path d="M2370.5,498.1l-1.4-3.5c-15.8-38.1-30.6-74.1-50.1-103.7c-21.8-33.3-47.4-55.6-80.5-70.2c-1-0.4-2-0.7-3.1-0.7
		c-51.6-0.7-96.3,16.5-132.9,51.2c-27.2,25.8-50.2,60.8-72.3,110.1c-1.1,2.5-2.3,5.1-3.6,7.9c-15.1,32.9-37.9,82.6-11.6,112
		c2.3,2.6,6,3.4,9.1,2c26.8-11.7,34.9-39.8,42.8-67.1c3.1-10.9,6.4-22.2,10.8-31.7c5.4-11.7,25.2-52.4,56-86.9
		c19.5-21.9,49.2-47.4,80.2-44.4c23,2.2,58.1,40.6,72.1,66c9.9,17.9,17.5,39.5,24.9,60.4c16.2,45.8,33,93.2,74.9,104.2
		c0.7,0.2,1.4,0.3,2,0.3c3.5,0,6.6-2.3,7.7-5.7c8.3-28-5.2-56.9-17-82.4C2375.6,509.6,2372.8,503.8,2370.5,498.1z"/>
	<path d="M1398,518.9c-3.4-9-6.6-18.4-9.9-28.4c-12.9-37.9-26.1-77.2-50-98.4c-48-42.6-125.3-27.9-167.5,12.6
		c-25.3,24.4-47.4,73.7-63.5,109.7l-1,2.3c-17.8,39.4-44.7,99-14.5,137.8c2.5,3.2,6.9,4,10.4,2c23.4-13.9,29.2-41,34.7-67.2
		c2.6-12.2,5.3-24.9,9.8-35.5c31.9-75.6,66.5-120.8,97.3-127.2c29.4-6.1,51.2,2.5,68.7,27.1c16.5,23.2,27.3,57.9,37.8,91.5
		c15.1,48.5,30.8,98.6,64.9,119.4c1.3,0.8,2.7,1.1,4.1,1.1c1.4,0,2.7-0.4,4-1c1.6-0.9,2.8-2.3,3.5-3.9
		c18.3-39.5,1.3-75.8-15.1-110.8C1406.8,539.7,1401.8,529.1,1398,518.9z"/>
	<path d="M1885.4,485c-22.7-1.2-28.3,16.6-32.1,28.4c-3.2,10.2-5.3,15.1-10.2,16.7c-24.3-2.4-50-3.7-74.9-5
		c-45.4-2.3-92.3-4.6-131.2-13.9c-1.4-15.6-6-25.1-13.7-28.4c-5.4-2.3-11.5-1.1-16.6,3.5c-8.9,7.9-15.3,26.6-9.7,45.7
		c4.8,16.7,18.3,21.4,29.2,25.2c6.6,2.3,12.4,4.3,15.9,8.4c0.9,19.5,1.8,39.8,2.6,59.4c5.1,118.9,10.4,241.8,26.2,342.9
		c1.9,12.4,2.9,25.7,4,39.8c1.8,24,3.6,48.8,10.6,69.3c8.4,24.7,23,39.7,44.8,45.8c0.7,0.2,1.4,0.3,2.2,0.3c2.3,0,4.5-1,6-2.8
		c28.4-32.8,31.9-77.6,35.2-120.9c1-13.1,2.1-26.7,3.8-39.9c4-31.1,9.2-63.1,14.6-97c14.4-89.7,29.3-182.4,27-277.9
		c35.7,4.1,63.6-13,76.2-33.4c12.8-20.6,11.3-44.4-4.1-63.5C1889.8,486.2,1887.7,485.1,1885.4,485z M1739.5,813
		c8.9,7.2,12,25.5,9.3,54.2c-2.6,27.7-10,60.8-17.2,92.9c-3.2,14.1-6.3,27.9-8.8,40.9c-9.4-57.3-18.5-119.5-23.2-185.6
		C1718.6,807.7,1732,806.9,1739.5,813z M1687.6,614.5c-1.4-14.2-2.8-28.9-4-43.5c12.8,0.3,23.8,2.4,35.4,4.5
		c15.2,2.9,30.9,5.8,51,4.5c-0.2,65-5.5,125.2-11.3,181.6c-11.3-4.1-22.7-6.2-34.9-6.2c-8.9,0-18.2,1.1-28.2,3.3
		C1696.5,706.8,1692,660,1687.6,614.5z"/>
</g>
</svg>
