<?xml version="1.0" encoding="utf-8"?>
<!-- Generator: Adobe Illustrator 26.3.1, SVG Export Plug-In . SVG Version: 6.00 Build 0)  -->
<svg version="1.1" id="cutline" xmlns="http://www.w3.org/2000/svg" xmlns:xlink="http://www.w3.org/1999/xlink" x="0px" y="0px"
	 width="64px" height="64px" viewBox="0 0 64 64" enable-background="new 0 0 64 64" xml:space="preserve">
<g>
	<path d="M40,24H24c-0.552,0-1,0.447-1,1v2c0,2.757,2.243,5,5,5h8c2.757,0,5-2.243,5-5v-2C41,24.447,40.552,24,40,24z M35,26h1v1h-1
		V26z M39,27c0,1.654-1.346,3-3,3h-8c-1.654,0-3-1.346-3-3v-1h8v2c0,0.553,0.448,1,1,1h3c0.552,0,1-0.447,1-1v-2h1V27z"/>
	<path d="M24,21h4c0.379,0,0.725-0.214,0.895-0.553l2-4c0.155-0.31,0.138-0.678-0.044-0.973S30.347,15,30,15h-7
		c-0.308,0-0.599,0.142-0.788,0.385c-0.189,0.242-0.257,0.559-0.182,0.857l1,4C23.141,20.688,23.541,21,24,21z M28.382,17l-1,2
		h-2.601l-0.5-2H28.382z"/>
	<path d="M33.149,15.475c-0.182,0.295-0.199,0.663-0.044,0.973l2,4C35.275,20.786,35.621,21,36,21h4c0.459,0,0.859-0.312,0.97-0.758
		l1-4c0.075-0.299,0.007-0.615-0.182-0.857C41.599,15.142,41.308,15,41,15h-7C33.653,15,33.332,15.18,33.149,15.475z M39.719,17
		l-0.5,2h-2.601l-1-2H39.719z"/>
	<path d="M31.895,22.447L32,22.236l0.105,0.211C32.281,22.798,32.634,23,33.001,23c0.15,0,0.303-0.034,0.446-0.105
		c0.494-0.247,0.694-0.848,0.447-1.342l-1-2c-0.339-0.678-1.45-0.678-1.789,0l-1,2c-0.247,0.494-0.047,1.095,0.447,1.342
		C31.048,23.14,31.647,22.94,31.895,22.447z"/>
	<path d="M30.999,15c0.306,0,0.608-0.14,0.805-0.404L32,14.331l0.196,0.265C32.393,14.86,32.695,15,33.001,15
		c0.207,0,0.416-0.063,0.594-0.196c0.444-0.329,0.537-0.955,0.208-1.399L33,12.32V12c0-0.553-0.448-1-1-1s-1,0.447-1,1v0.32
		l-0.804,1.084c-0.329,0.444-0.235,1.07,0.208,1.399C30.583,14.937,30.792,15,30.999,15z"/>
	<path d="M23.707,12.707C23.895,12.52,24,12.266,24,12v-1c0-0.553-0.448-1-1-1s-1,0.447-1,1v0.586l-0.707,0.707
		c-0.391,0.391-0.391,1.023,0,1.414C21.488,13.902,21.744,14,22,14s0.512-0.098,0.707-0.293L23.707,12.707z"/>
	<path d="M25.707,55.293c-0.391-0.391-1.023-0.391-1.414,0l-0.265,0.265l-1.22-1.952l0.899-0.899c0.391-0.391,0.391-1.023,0-1.414
		s-1.023-0.391-1.414,0l-0.573,0.573l-0.872-1.396c-0.293-0.469-0.909-0.61-1.378-0.317c-0.469,0.292-0.611,0.909-0.318,1.378
		l1.117,1.787l-0.976,0.976c-0.391,0.391-0.391,1.023,0,1.414C19.488,55.902,19.744,56,20,56s0.512-0.098,0.707-0.293l0.649-0.649
		l1.22,1.952l-1.283,1.283c-0.391,0.391-0.391,1.023,0,1.414C21.488,59.902,21.744,60,22,60s0.512-0.098,0.707-0.293l0.957-0.957
		l0.488,0.78c0.19,0.304,0.516,0.47,0.849,0.47c0.181,0,0.364-0.049,0.529-0.152c0.469-0.292,0.611-0.909,0.318-1.378l-0.732-1.172
		l0.591-0.591C26.098,56.316,26.098,55.684,25.707,55.293z"/>
	<path d="M56.916,36.612L43.1,31.349c0.07-0.267,0.172-0.525,0.315-0.764l2.442-4.07C45.951,26.359,46,26.182,46,26v-1h2
		c0.552,0,1-0.447,1-1h3c0.197,0,0.391-0.059,0.555-0.168l3-2C55.833,21.646,56,21.334,56,21s-0.167-0.646-0.445-0.832l-3-2
		C52.391,18.059,52.197,18,52,18h-3c0-0.553-0.448-1-1-1h-2V7c0-3.859-3.14-7-7-7H25c-3.86,0-7,3.141-7,7v10h-2
		c-0.552,0-1,0.447-1,1h-1v-2c0-0.553-0.448-1-1-1H9c-0.552,0-1,0.447-1,1v10c0,0.553,0.448,1,1,1h4c0.552,0,1-0.447,1-1v-2h1
		c0,0.553,0.448,1,1,1h2v1c0,0.182,0.049,0.359,0.143,0.515l2.442,4.07c0.143,0.239,0.246,0.497,0.315,0.764L7.084,36.612
		C2.847,38.226,0,42.356,0,46.892V63c0,0.553,0.448,1,1,1h62c0.552,0,1-0.447,1-1V46.892C64,42.356,61.153,38.226,56.916,36.612z
		 M13,22c-0.552,0-1,0.447-1,1v2h-2v-8h2v2c0,0.553,0.448,1,1,1h2v2H13z M57.933,39.398l-0.761,5.326l-5.074-1.45l0.758-6.067
		l3.347,1.275C56.824,38.718,57.393,39.04,57.933,39.398z M51.697,20l1.5,1l-1.5,1H49v-2H51.697z M47,19v4h-1v-4H47z M43.899,6H36V2
		h3C41.414,2,43.434,3.721,43.899,6z M25,2h9v5c0,0.553,0.448,1,1,1h9v0.22l-6.693,1.673l-1.6-1.6
		c-0.268-0.268-0.664-0.363-1.023-0.241L32.27,8.855l-2.563-2.562c-0.391-0.391-1.023-0.391-1.414,0l-2.42,2.42l-2.318-1.545
		c-0.299-0.199-0.682-0.223-1.002-0.062L20,8.382V7C20,4.243,22.243,2,25,2z M17,23v-4h1v4H17z M20,25.723V10.618l2.928-1.464
		l2.517,1.678c0.397,0.267,0.924,0.213,1.262-0.125L29,8.414l2.293,2.293c0.268,0.268,0.663,0.362,1.023,0.241l2.414-0.804
		l1.563,1.562C36.483,11.896,36.738,12,37,12c0.081,0,0.162-0.01,0.243-0.03L40,11.28l0,0.721c0,0.265,0.105,0.519,0.293,0.706l1,1
		C41.488,13.902,41.744,14,42,14s0.512-0.098,0.707-0.293c0.391-0.391,0.391-1.023,0-1.414L42,11.586l0-0.587
		c0-0.074-0.027-0.139-0.042-0.208L44,10.28v15.442l-2.299,3.833C41.242,30.319,41,31.194,41,32.085C41,33.692,39.692,35,38.084,35
		H33v-1c0-0.553-0.448-1-1-1s-1,0.447-1,1v1h-5.084C24.308,35,23,33.692,23,32.085c0-0.891-0.242-1.766-0.701-2.529L20,25.723z
		 M7.796,38.481l3.347-1.275l0.758,6.067l-5.074,1.45l-0.761-5.326C6.607,39.04,7.176,38.718,7.796,38.481z M62,62h-9v-8.586
		l1.207-1.207c0.391-0.391,0.391-1.023,0-1.414s-1.023-0.391-1.414,0l-1.5,1.5C51.105,52.48,51,52.734,51,53v9H13v-9
		c0-0.266-0.105-0.52-0.293-0.707l-1.5-1.5c-0.391-0.391-1.023-0.391-1.414,0s-0.391,1.023,0,1.414L11,53.414V62H2V46.892
		c0-2.225,0.85-4.322,2.269-5.937l0.741,5.187c0.041,0.286,0.203,0.54,0.446,0.697C5.62,46.945,5.809,47,6,47
		c0.092,0,0.185-0.013,0.275-0.038L9,46.183V48c0,0.553,0.448,1,1,1s1-0.447,1-1v-2.388l2.275-0.65
		c0.474-0.136,0.778-0.597,0.717-1.086L13.633,41H15c0.552,0,1-0.447,1-1s-0.448-1-1-1h-1.617l-0.316-2.527l5.262-2.005
		c0.14,0.517,0.329,1.164,0.576,1.899c0.14,0.418,0.53,0.682,0.948,0.682c0.105,0,0.213-0.017,0.319-0.052
		c0.523-0.177,0.805-0.743,0.629-1.267c-0.267-0.793-0.459-1.469-0.593-1.978l0.986-0.376C21.766,35.458,23.655,37,25.916,37h12.169
		c2.26,0,4.15-1.542,4.721-3.623l0.986,0.376C42.958,36.948,39.722,47,32,47c-3.61,0-6.673-2.183-9.104-6.488
		c-0.271-0.481-0.881-0.65-1.362-0.38c-0.481,0.271-0.65,0.882-0.379,1.362C23.927,46.404,27.677,49,32,49
		c8.952,0,12.653-10.778,13.67-14.532l5.263,2.005L50.617,39H49c-0.552,0-1,0.447-1,1s0.448,1,1,1h1.367l-0.359,2.876
		c-0.061,0.489,0.243,0.95,0.717,1.086L53,45.612V48c0,0.553,0.448,1,1,1s1-0.447,1-1v-1.817l2.725,0.779
		C57.815,46.987,57.908,47,58,47c0.191,0,0.38-0.055,0.544-0.161c0.243-0.157,0.405-0.411,0.446-0.697l0.741-5.187
		C61.15,42.57,62,44.666,62,46.892V62z"/>
	<path d="M43.731,53.317l1.117-1.787c0.292-0.469,0.15-1.086-0.318-1.378c-0.467-0.294-1.084-0.151-1.378,0.317l-0.872,1.396
		l-0.573-0.573c-0.391-0.391-1.023-0.391-1.414,0s-0.391,1.023,0,1.414l0.899,0.899l-1.22,1.952l-0.265-0.265
		c-0.391-0.391-1.023-0.391-1.414,0s-0.391,1.023,0,1.414l0.591,0.591l-0.732,1.172c-0.292,0.469-0.15,1.086,0.318,1.378
		C38.635,59.951,38.818,60,38.999,60c0.333,0,0.659-0.166,0.849-0.47l0.488-0.78l0.957,0.957C41.488,59.902,41.744,60,42,60
		s0.512-0.098,0.707-0.293c0.391-0.391,0.391-1.023,0-1.414l-1.283-1.283l1.22-1.952l0.649,0.649C43.488,55.902,43.744,56,44,56
		s0.512-0.098,0.707-0.293c0.391-0.391,0.391-1.023,0-1.414L43.731,53.317z"/>
	<path d="M25,41h4.586L31,42.414V45c0,0.553,0.448,1,1,1s1-0.447,1-1v-2.586L34.414,41H39c0.552,0,1-0.447,1-1s-0.448-1-1-1h-5
		c-0.265,0-0.52,0.105-0.707,0.293L32,40.586l-1.293-1.293C30.52,39.105,30.265,39,30,39h-5c-0.552,0-1,0.447-1,1S24.448,41,25,41z"
		/>
</g>
</svg>
