<svg id="Layer_1" data-name="Layer 1" xmlns="http://www.w3.org/2000/svg" viewBox="0 0 110 110"><path d="M86.62,98.17a18.46,18.46,0,0,1,1.64-.93c2.4-1.26,5.69-3,5.95-6.55a5.81,5.81,0,0,0-1.63-4.47,6.4,6.4,0,0,0-4.72-2c-5.57.17-15.09-.77-16.07-8.71a85.06,85.06,0,0,1,0-10.76c.36-10.74.84-25.44-4.1-35.95a18,18,0,1,0-35.51-4.7c-2.62,3.7-3.71,8.56-3.2,14.44A196.31,196.31,0,0,1,29,72.24a11.28,11.28,0,0,1-3.64,7.32c-5,4.57-10.74,11-9.43,15.65.66,2.33,2.9,3.87,6.66,4.59a.94.94,0,0,0,.5,0c.09,0,9.22-3,14.19-.08A20.85,20.85,0,0,0,47.79,103c4.35,0,9.25-1.9,14.41-7.72,5.94-6.7,12.92-2.36,18,.82C83.07,97.88,85.12,99.16,86.62,98.17ZM34.13,24.51a15.87,15.87,0,1,1,0,.46C34.12,24.83,34.12,24.68,34.13,24.51Zm47.15,69.9C76.22,91.26,67.76,86,60.7,94c-8.87,10-16.62,7.39-22.37,4a13.56,13.56,0,0,0-6.83-1.56,32.19,32.19,0,0,0-8.75,1.39c-2.81-.57-4.44-1.62-4.86-3.11-.8-2.82,2.43-7.79,8.84-13.64A13.23,13.23,0,0,0,31,72.42a199.36,199.36,0,0,0-.08-34,21.62,21.62,0,0,1,1.41-10.6c0,.15.06.29.08.43l.15.7c.07.33.16.65.25,1s.13.45.2.67.23.63.35.94.16.43.25.63.3.63.45.94.19.38.29.56c.19.34.4.67.61,1,.09.14.16.28.25.41.31.45.64.9,1,1.32l.15.17q.47.54,1,1c.13.14.28.26.41.39s.53.49.8.73l.51.4c.27.21.53.41.81.6s.38.25.57.38l.83.5.62.34.87.42.66.28.92.34c.22.07.44.15.67.21s.66.18,1,.26.43.11.65.15c.37.08.76.13,1.14.18l.56.08c.58.05,1.17.08,1.76.08s1,0,1.47-.06l.47,0c.33,0,.65-.07,1-.12l.55-.11c.29,0,.57-.11.85-.18l.57-.16L55.8,42l.56-.19.77-.31.54-.23.76-.38.49-.26c.27-.15.53-.31.79-.48l.4-.25c.37-.24.72-.5,1.07-.77l.09-.07c.35-.28.69-.57,1-.88l.34-.33c.22-.21.44-.43.64-.65l.37-.42.55-.65c.12-.15.24-.31.35-.47s.32-.44.48-.67.22-.34.32-.51.29-.47.42-.71l.29-.52c.13-.26.25-.52.37-.78s.17-.35.24-.52a1.3,1.3,0,0,1,.08-.17c3.77,9.91,3.34,23.1,3,32.92a84.32,84.32,0,0,0,0,11.07c.85,6.94,7.44,10.76,18.1,10.47a4.3,4.3,0,0,1,3.23,1.33,3.85,3.85,0,0,1,1.08,2.94C92,93,89.54,94.31,87.33,95.47c-.67.35-1.3.69-1.82,1S82.75,95.33,81.28,94.41Zm-31.17-65A4.45,4.45,0,1,0,45.66,25,4.45,4.45,0,0,0,50.11,29.42Zm0-6.9A2.45,2.45,0,1,1,47.66,25,2.45,2.45,0,0,1,50.11,22.52ZM64.7,49.26a1,1,0,0,0-1.26.1C58.16,54.45,52.09,56,45.41,54a25.53,25.53,0,0,1-8.67-4.67,1,1,0,0,0-1.56,1.19c.31.63,7.35,14.84,15,14.84a6.24,6.24,0,0,0,1.13-.1C59.25,63.78,64.82,51,65.05,50.47A1,1,0,0,0,64.7,49.26ZM51,63.29c-4.23.79-9-5.24-12-10,4.71,2.73,13.35,6,22.05.45C58.91,57.49,55.24,62.49,51,63.29Z"/></svg>