<?xml version="1.0" encoding="utf-8"?>
<!-- Generator: Adobe Illustrator 25.0.0, SVG Export Plug-In . SVG Version: 6.00 Build 0)  -->
<svg version="1.1" id="Layer_1" xmlns="http://www.w3.org/2000/svg" xmlns:xlink="http://www.w3.org/1999/xlink" x="0px" y="0px"
	 viewBox="0 0 180.99 338.42" style="enable-background:new 0 0 180.99 338.42;" xml:space="preserve">
<style type="text/css">
	.st0{fill:#FF8122;}
	.st1{fill:#E33F10;}
	.st2{fill:#A15DC1;}
	.st3{fill:#FE8510;}
	.st4{fill:#FFFFFF;}
	.st5{fill:#1C1A19;}
	.st6{fill:#CECDCC;}
	.st7{fill:none;}
	.st8{fill:#E11210;}
	.st9{fill:#F2790B;}
	.st10{fill:#3A312D;}
	.st11{fill:#66605D;}
	.st12{fill:#777270;}
	.st13{fill:#474341;}
	.st14{fill:#FE5810;}
	.st15{fill:#ED7411;}
	.st16{fill:#D8670B;}
	.st17{fill:#E56D0A;}
	.st18{fill:#AD5412;}
	.st19{fill:#8A8C2D;}
	.st20{fill:#E2DBC7;}
	.st21{fill:#FDB415;}
	.st22{opacity:0.52;fill:#FDB415;}
	.st23{fill:#CE7ECE;}
	.st24{fill:#3F190B;}
	.st25{opacity:0.45;fill:#CE7ECE;}
	.st26{fill:#7CC442;}
	.st27{fill:#F37022;}
	.st28{fill:#F7ADCE;}
	.st29{fill:#92278E;}
	.st30{fill:#EA539B;}
	.st31{fill:#575757;}
	.st32{fill:#393963;}
	.st33{fill:#EF3F37;}
	.st34{opacity:0.51;}
	.st35{fill:#DBD2CA;}
	.st36{fill:#635E5C;}
	.st37{fill:#661266;}
	.st38{fill:#A333A3;}
	.st39{fill:#86B79D;}
	.st40{opacity:0.31;fill:#7CC442;}
	.st41{fill:#A1E269;}
	.st42{fill:#609E2A;}
	.st43{fill:#457C11;}
	.st44{clip-path:url(#SVGID_2_);}
	.st45{clip-path:url(#SVGID_4_);}
	.st46{fill:#9E3F9A;}
	.st47{fill:#00A1C4;}
	.st48{opacity:0.53;fill:#DBD2CA;}
	.st49{fill:#964E3E;}
	.st50{fill:#FEDD00;}
	.st51{fill:#773B29;}
	.st52{fill:#5B2515;}
	.st53{opacity:0.53;}
</style>
<g>
	<g>
		<g>
			<g>
				<path class="st24" d="M172.86,60.71c-55.9-23.64-109.3-23.4-164.95,0.73c31.83,14.79,54.81,31.71,72.32,56.46h20.86
					C118.34,92.95,141.14,75.8,172.86,60.71z"/>
			</g>
		</g>
		<g>
			<path class="st29" d="M172.86,60.71c-5.38-2.27-10.73-4.32-16.07-6.15c-20.53,11.91-35.46,30.89-46.98,51.97
				C125.87,87.54,146.21,73.39,172.86,60.71z"/>
		</g>
		<g>
			<path class="st29" d="M7.9,61.43c5.38-2.27,10.73-4.32,16.07-6.15C44.5,67.2,59.43,86.17,70.95,107.26
				C54.89,88.26,34.55,74.11,7.9,61.43z"/>
		</g>
	</g>
	<g>
		<g>
			<path class="st24" d="M180.99,323.84c-15.79,4.99-31.32,8.69-46.74,11.12c-6.76,1.07-13.5,1.88-20.22,2.46
				c-7.05,0.59-14.06,0.93-21.08,0.97c-1.64,0.03-3.27,0.03-4.89,0c-7.04-0.05-14.06-0.38-21.1-0.97
				c-6.72-0.58-13.46-1.39-20.22-2.46c-15.41-2.43-30.94-6.13-46.74-11.12c5.88-61.01,11.76-122.01,17.61-183.02
				c1.32-13.7,10.46-25.13,23.29-29.36c15.18-5.01,30.28-10.23,45.37-15.51c1.4-0.5,2.83-0.99,4.23-1.49c1.4,0.5,2.79,0.99,4.2,1.47
				c15.08,5.3,30.18,10.52,45.38,15.53c12.84,4.23,21.97,15.66,23.29,29.36C169.22,201.83,175.11,262.84,180.99,323.84z"/>
		</g>
	</g>
	<path class="st33" d="M134.25,334.96c-6.76,1.07-13.5,1.88-20.22,2.46c-7.05,0.59-14.06,0.93-21.08,0.97
		c-1.64,0.03-3.27,0.03-4.89,0c-7.04-0.05-14.06-0.38-21.1-0.97c-6.72-0.58-13.46-1.39-20.22-2.46
		c4.61-24.63,41.3-220.55,43.76-220.97C92.98,114.4,129.64,310.33,134.25,334.96z"/>
	<path class="st29" d="M114.03,337.5c-15.71,1.23-31.36,1.23-47.07,0c0,0,22.14-223.06,23.54-223.52
		C91.9,114.44,114.03,337.5,114.03,337.5z"/>
	<g>
		<g>
			<g>
				<path class="st26" d="M112.75,71.46c-14.68,3.62-27.59,3.86-42.39,0.75c-0.31,11.24-0.61,22.49-0.92,33.73
					c15.07,3.5,28.22,3.5,43.28-0.03C112.73,94.43,112.74,82.94,112.75,71.46z"/>
				<path class="st33" d="M112.72,105.91c-15.06,3.53-28.21,3.54-43.28,0.03c-0.06,2.13-0.09,3.2-0.15,5.33
					c14.99,3.62,28.43,3.63,43.42,0.01C112.72,109.13,112.72,108.06,112.72,105.91z"/>
			</g>
		</g>
		<g>
			<path class="st26" d="M116.84,13.51l-9.22-5.96L76.01,8.2l-12.2,5.31c-16.95,8.24-15.97,28.32-10.32,44.41
				c-2.28,0.33-4.59,0.48-6.9,0.59c5.19,22.19,23.09,44.5,44.38,44.5c21.27,0,39.16-22.27,44.37-44.44
				c-2.74-0.11-5.48-0.26-8.17-0.65C132.81,41.83,133.79,21.75,116.84,13.51z"/>
			<g>
				<path class="st24" d="M74.47,11.59c6.11,0,11.78,2.04,16.5,5.54c4.71-3.5,10.39-5.54,16.5-5.54c11.3,0,21.11,6.98,26.09,17.24
					C126.76,11.93,110.26,0,90.96,0c-19.29,0-35.8,11.93-42.58,28.83C53.36,18.57,63.17,11.59,74.47,11.59z"/>
				<g>
					<g>
						<path class="st7" d="M48.38,28.83c-2.22,4.57-3.48,9.79-3.48,15.34c0,1.34,0.08,2.7,0.23,4.08c-0.04-0.76-0.06-1.51-0.06-2.26
							C45.06,39.92,46.25,34.13,48.38,28.83z"/>
					</g>
				</g>
				<g>
					<g>
						<path class="st7" d="M136.81,48.25c0.14-1.38,0.23-2.74,0.23-4.08c0-5.55-1.26-10.77-3.48-15.34
							c2.13,5.31,3.31,11.09,3.31,17.16C136.86,46.74,136.84,47.49,136.81,48.25z"/>
					</g>
				</g>
			</g>
			<path class="st26" d="M130.69,40.87c0.02-0.03,0.05-0.06,0.07-0.1c0.93-1.31,8.37-11.41,13.11-19.4
				c3.39,12.79,4.74,27.49-0.34,36.44c-2.74,4.84-11.89,9.62-17.43,5.29C119.3,57.76,127.16,45.88,130.69,40.87z"/>
			<path class="st26" d="M50.17,43.05c-0.02-0.03-0.04-0.07-0.07-0.1c-0.92-1.38-8.3-11.97-12.99-20.35
				c-3.35,13.41-4.3,27.65-0.34,35.89c2.5,5.18,12.46,12.43,17.95,7.87C61.45,60.77,53.67,48.3,50.17,43.05z"/>
			<g>
				<g>
					<g>
						<g>
							<g>
								<path class="st24" d="M105.68,37.09c-4.05,4.6-5.75,10.09-7.23,8.99c-1.37-0.75-0.33-8.28,4.2-13.1
									c4.38-4.98,10.63-6.43,15.09-4.11c4.59,2.31,6.31,7.3,6.31,7.08c0,0.12-3.3-3.96-7.25-4.05
									C112.89,31.7,109.2,33.08,105.68,37.09z"/>
							</g>
						</g>
					</g>
					<path class="st24" d="M122.9,40.73c0,0-2.46,7.58-8.55,10.44c-6.09,2.86-13.5-0.08-13.5-0.08s2.46-7.58,8.55-10.44
						C115.5,37.79,122.9,40.73,122.9,40.73z"/>
					<g>
						<path class="st33" d="M115.86,45.42c0,1.73-1.4,3.12-3.12,3.12c-1.72,0-3.12-1.4-3.12-3.12c0-1.72,1.4-3.12,3.12-3.12
							C114.46,42.3,115.86,43.69,115.86,45.42z"/>
						<path class="st24" d="M114.49,45.42c0,0.97-0.79,1.75-1.76,1.75c-0.97,0-1.76-0.79-1.76-1.75c0-0.97,0.79-1.76,1.76-1.76
							C113.71,43.66,114.49,44.45,114.49,45.42z"/>
					</g>
					<path class="st4" d="M115.47,43.17c0,0.65-0.53,1.17-1.17,1.17c-0.65,0-1.17-0.53-1.17-1.17c0-0.65,0.52-1.17,1.17-1.17
						C114.95,42,115.47,42.53,115.47,43.17z"/>
				</g>
				<g>
					<g>
						<g>
							<g>
								<path class="st24" d="M75.05,37.09c4.05,4.6,5.75,10.09,7.23,8.99c1.36-0.75,0.33-8.28-4.2-13.1
									C73.71,28,67.45,26.54,63,28.86c-4.59,2.31-6.3,7.3-6.31,7.08c0,0.12,3.3-3.96,7.25-4.05
									C67.84,31.7,71.53,33.08,75.05,37.09z"/>
							</g>
						</g>
					</g>
					<path class="st24" d="M57.83,40.73c0,0,2.46,7.58,8.55,10.44c6.09,2.86,13.5-0.08,13.5-0.08s-2.47-7.58-8.55-10.44
						C65.24,37.79,57.83,40.73,57.83,40.73z"/>
					<g>
						<g>
							<path class="st33" d="M66.49,45.42c0,1.73,1.4,3.12,3.12,3.12c1.72,0,3.12-1.4,3.12-3.12c0-1.72-1.4-3.12-3.12-3.12
								C67.89,42.3,66.49,43.69,66.49,45.42z"/>
							<path class="st24" d="M67.85,45.42c0,0.97,0.79,1.75,1.76,1.75c0.97,0,1.75-0.79,1.75-1.75c0-0.97-0.78-1.76-1.75-1.76
								C68.64,43.66,67.85,44.45,67.85,45.42z"/>
						</g>
						<path class="st4" d="M66.88,43.17c0,0.65,0.52,1.17,1.17,1.17s1.17-0.53,1.17-1.17c0-0.65-0.52-1.17-1.17-1.17
							S66.88,42.53,66.88,43.17z"/>
					</g>
				</g>
			</g>
			<path class="st24" d="M63.81,13.51h1c0.61-0.42,1.23-0.82,1.86-1.2C65.67,12.68,64.71,13.07,63.81,13.51z"/>
			<g>
				<g>
					<path class="st24" d="M45.06,45.99c0,4.07,0.53,8.29,1.52,12.52c2.32-0.11,4.63-0.26,6.9-0.59
						c-5.65-16.09-6.63-36.18,10.32-44.41h-0.85h0.85c0.9-0.44,1.86-0.83,2.85-1.2c0.21-0.13,0.43-0.24,0.64-0.36H60.1
						C50.86,20.36,45.06,32.5,45.06,45.99z"/>
					<path class="st24" d="M121.83,11.95h-7.38l2.38,1.56h2.33h-2.33c16.95,8.24,15.97,28.32,10.32,44.41
						c2.69,0.39,5.43,0.54,8.17,0.65c1-4.25,1.54-8.49,1.54-12.58C136.86,32.5,131.07,20.36,121.83,11.95z"/>
				</g>
			</g>
			<g>
				<path class="st24" d="M101.38,75.6c-0.67,2.07-1.44,4.1-2.09,6.18c-0.95-1.36-1.7-3.15-2.29-4.83
					c-2.12,0.47-4.34,0.73-6.64,0.73c-2.44,0-4.79-0.29-7.03-0.82c-0.56,1.64-1.15,3.26-1.67,4.92c-1.25-1.78-2.14-4.31-2.8-6.36
					c-3.58-1.5-6.69-3.68-9.08-6.33c1.2,10.63,20.56,25.38,20.56,25.38s19.36-14.75,20.57-25.38
					C108.44,71.85,105.16,74.1,101.38,75.6z"/>
				<path class="st4" d="M101.38,75.6c-1.39,0.55-2.85,1.01-4.37,1.34c0.59,1.68,1.34,3.47,2.29,4.83
					C99.94,79.7,100.71,77.67,101.38,75.6z"/>
				<path class="st4" d="M83.34,76.86c-1.55-0.37-3.05-0.85-4.46-1.45c0.65,2.06,1.55,4.58,2.8,6.36
					C82.19,80.12,82.78,78.49,83.34,76.86z"/>
				<g>
					<path class="st33" d="M90.13,85.29c-1.87,0.06-4.54,0.53-6.82,1.3c3.01,2.86,5.74,5.11,7.05,6.16
						c1.29-1.03,3.96-3.23,6.92-6.03C95.24,85.96,92.32,85.22,90.13,85.29z"/>
				</g>
			</g>
			<path class="st1" d="M106.92,83.43c-1.14,3.17-2.74,7.9-1.92,10.07c0.68,1.78,2.59,0.91,3.28-0.74
				C109.51,89.84,107.54,86.56,106.92,83.43z"/>
			<path class="st1" d="M103.08,95.34c-0.88,2.44-2.12,6.09-1.48,7.76c0.52,1.37,2,0.7,2.53-0.57
				C105.07,100.29,103.55,97.76,103.08,95.34z"/>
		</g>
	</g>
	<g>
		<path class="st33" d="M63.26,132.83c-0.73,0-1.42-0.08-2.08-0.23c-2.42-0.55-4.37-2.18-5.11-4.25c-0.8-2.24-0.18-4.93,1.63-7l0,0
			c1.46-1.68,3.41-2.74,5.3-3.64c7.05-3.33,14.98-5.57,25.73-7.26c0.7-0.11,1.4,0.24,1.72,0.87c0.33,0.63,0.21,1.4-0.28,1.91
			c-1.48,1.52-2.93,3.15-4.33,4.72c-0.96,1.08-1.93,2.16-2.91,3.22c-3.81,4.11-9.04,9.08-15.71,11.03
			C65.78,132.62,64.47,132.83,63.26,132.83z M84.45,114.54c-8.06,1.53-14.37,3.48-20.04,6.16c-1.81,0.86-3.22,1.66-4.22,2.81l0,0
			c-1.01,1.16-1.4,2.63-1.01,3.73c0.36,1,1.43,1.84,2.73,2.14c1.2,0.27,2.64,0.16,4.38-0.35c5.88-1.72,10.68-6.3,14.21-10.1
			c0.97-1.04,1.92-2.11,2.87-3.17C83.72,115.35,84.08,114.95,84.45,114.54z M58.94,122.43L58.94,122.43L58.94,122.43z"/>
	</g>
	<g>
		<path class="st33" d="M116.02,132.83c-1.21,0-2.52-0.21-3.96-0.63c-6.66-1.95-11.89-6.92-15.7-11.03
			c-0.98-1.06-1.94-2.14-2.91-3.22c-1.4-1.57-2.86-3.2-4.33-4.72c-0.5-0.51-0.61-1.28-0.28-1.91c0.33-0.63,1.03-0.98,1.72-0.87
			c10.74,1.69,18.68,3.93,25.73,7.26c1.89,0.9,3.85,1.96,5.3,3.64l0,0c1.8,2.08,2.42,4.76,1.63,7c-0.74,2.07-2.7,3.7-5.11,4.25
			C117.44,132.76,116.74,132.83,116.02,132.83z M94.83,114.54c0.37,0.41,0.73,0.81,1.09,1.21c0.95,1.06,1.9,2.13,2.87,3.17
			c3.52,3.8,8.32,8.39,14.21,10.1c1.74,0.51,3.18,0.62,4.38,0.35c1.3-0.29,2.37-1.13,2.73-2.14c0.39-1.1,0-2.57-1.01-3.73l0,0
			c-1-1.15-2.41-1.96-4.22-2.81C109.2,118.02,102.88,116.07,94.83,114.54z"/>
	</g>
	<g>
		<path class="st33" d="M109.35,156.56c-0.21,0-0.42-0.04-0.62-0.12c-0.84-0.35-1.25-1.31-0.9-2.16c0.81-1.97,0.47-4.52-0.93-7
			c-1.09-1.93-2.61-3.6-4.22-5.36c-0.36-0.39-0.72-0.79-1.08-1.18c-2.57-2.86-9.62-11.35-12.38-20.83
			c-2.32,5.57-6.21,10.78-11.4,15.16c-5.99,5.06-13.5,9-23.62,12.41c-0.87,0.3-1.8-0.17-2.09-1.04c-0.29-0.86,0.17-1.8,1.04-2.09
			c9.72-3.27,16.88-7.02,22.54-11.81c6.98-5.89,11.4-13.37,12.44-21.04c0.12-0.88,0.91-1.51,1.78-1.42c0.88,0.08,1.54,0.83,1.5,1.72
			c-0.38,8.89,6.28,19.64,12.64,26.74c0.35,0.39,0.7,0.77,1.05,1.16c1.67,1.82,3.39,3.71,4.67,5.97c1.89,3.36,2.3,6.96,1.1,9.88
			C110.62,156.17,110,156.56,109.35,156.56z"/>
	</g>
</g>
</svg>
